# Blender 4.5.3 LTS
# www.blender.org
mtllib lighthouse_light.mtl
o Cone.001
v -3.509499 0.061926 -1.000736
v -3.509445 -0.133211 -0.981521
v -3.509393 -0.320849 -0.924615
v -3.509346 -0.493777 -0.832205
v -3.509304 -0.645350 -0.707843
v -3.509270 -0.769742 -0.556306
v -3.509244 -0.862174 -0.383419
v -3.509229 -0.919094 -0.195826
v -3.509223 -0.938313 -0.000736
v -3.509229 -0.919094 0.194354
v -3.509244 -0.862175 0.381948
v -3.509270 -0.769743 0.554834
v -3.509304 -0.645350 0.706371
v -3.509346 -0.493777 0.830734
v -3.509393 -0.320849 0.923144
v -3.509445 -0.133211 0.980049
v -3.509499 0.061926 0.999264
v -3.509553 0.257063 0.980049
v -3.509604 0.444701 0.923144
v -3.509652 0.617629 0.830734
v -3.509694 0.769202 0.706371
v -3.509728 0.893595 0.554835
v -3.509754 0.986027 0.381948
v -3.509769 1.042946 0.194355
v -3.509775 1.062166 -0.000736
v -3.509769 1.042946 -0.195826
v -3.509754 0.986027 -0.383419
v -3.509728 0.893595 -0.556306
v -3.509694 0.769202 -0.707842
v -3.509652 0.617630 -0.832205
v -3.509604 0.444701 -0.924615
v -3.509553 0.257063 -0.981521
v 0.030816 -0.000013 -0.000736
v 3.510103 0.060908 -1.000736
v 3.506686 0.256015 -0.981521
v 3.503401 0.443625 -0.924615
v 3.500373 0.616526 -0.832205
v 3.497719 0.768076 -0.707842
v 3.495541 0.892449 -0.556306
v 3.493923 0.984867 -0.383419
v 3.492926 1.041778 -0.195826
v 3.492589 1.060994 -0.000736
v 3.492926 1.041778 0.194355
v 3.493923 0.984867 0.381948
v 3.495541 0.892449 0.554835
v 3.497719 0.768076 0.706371
v 3.500373 0.616526 0.830734
v 3.503400 0.443624 0.923144
v 3.506685 0.256015 0.980050
v 3.510102 0.060908 0.999264
v 3.513519 -0.134199 0.980049
v 3.516804 -0.321809 0.923144
v 3.519832 -0.494710 0.830734
v 3.522486 -0.646260 0.706371
v 3.524664 -0.770634 0.554834
v 3.526282 -0.863051 0.381948
v 3.527278 -0.919962 0.194354
v 3.527615 -0.939178 -0.000736
v 3.527278 -0.919962 -0.195826
v 3.526282 -0.863051 -0.383419
v 3.524663 -0.770633 -0.556306
v 3.522486 -0.646260 -0.707843
v 3.519832 -0.494710 -0.832205
v 3.516804 -0.321808 -0.924615
v 3.513519 -0.134199 -0.981521
v -0.029670 -0.001078 -0.000736
vn 0.2691 -0.0943 -0.9585
vn 0.2661 -0.2797 -0.9225
vn 0.2633 -0.4546 -0.8509
vn 0.2607 -0.6123 -0.7464
vn 0.2585 -0.7466 -0.6129
vn 0.2568 -0.8523 -0.4557
vn 0.2557 -0.9251 -0.2807
vn 0.2551 -0.9623 -0.0948
vn 0.2551 -0.9623 0.0948
vn 0.2557 -0.9251 0.2807
vn 0.2568 -0.8523 0.4557
vn 0.2585 -0.7466 0.6129
vn 0.2607 -0.6123 0.7464
vn 0.2633 -0.4546 0.8509
vn 0.2661 -0.2797 0.9225
vn 0.2691 -0.0943 0.9585
vn 0.2721 0.0944 0.9576
vn 0.2751 0.2791 0.9200
vn 0.2780 0.4528 0.8472
vn 0.2805 0.6089 0.7420
vn 0.2826 0.7415 0.6086
vn 0.2843 0.8455 0.4520
vn 0.2855 0.9171 0.2782
vn 0.2861 0.9536 0.0939
vn 0.2861 0.9536 -0.0939
vn 0.2855 0.9171 -0.2782
vn 0.2843 0.8455 -0.4520
vn 0.2826 0.7415 -0.6086
vn 0.2805 0.6089 -0.7420
vn 0.2780 0.4528 -0.8472
vn -1.0000 -0.0003 -0.0000
vn 0.2751 0.2791 -0.9200
vn 0.2721 0.0944 -0.9576
vn -0.2722 0.0896 -0.9581
vn -0.2755 0.2746 -0.9213
vn -0.2785 0.4489 -0.8491
vn -0.2813 0.6058 -0.7442
vn -0.2836 0.7392 -0.6108
vn -0.2855 0.8441 -0.4539
vn -0.2868 0.9163 -0.2795
vn -0.2874 0.9531 -0.0944
vn -0.2874 0.9531 0.0944
vn -0.2868 0.9163 0.2795
vn -0.2855 0.8441 0.4539
vn -0.2836 0.7392 0.6108
vn -0.2813 0.6058 0.7442
vn -0.2785 0.4489 0.8491
vn -0.2755 0.2746 0.9213
vn -0.2722 0.0896 0.9581
vn -0.2689 -0.0991 0.9581
vn -0.2657 -0.2841 0.9213
vn -0.2626 -0.4584 0.8491
vn -0.2599 -0.6153 0.7442
vn -0.2576 -0.7487 0.6108
vn -0.2558 -0.8536 0.4539
vn -0.2545 -0.9258 0.2795
vn -0.2539 -0.9626 0.0944
vn -0.2539 -0.9626 -0.0944
vn -0.2545 -0.9258 -0.2795
vn -0.2558 -0.8536 -0.4539
vn -0.2576 -0.7487 -0.6108
vn -0.2599 -0.6153 -0.7442
vn -0.2626 -0.4584 -0.8491
vn 0.9998 0.0175 -0.0000
vn -0.2657 -0.2841 -0.9213
vn -0.2689 -0.0991 -0.9581
vt 0.796993 0.974880
vt 0.521838 0.012131
vt 0.791763 0.974881
vt 0.776275 0.974915
vt 0.751123 0.974980
vt 0.717275 0.975073
vt 0.676030 0.975191
vt 0.628974 0.975330
vt 0.577916 0.975483
vt 0.524817 0.975646
vt 0.471718 0.975811
vt 0.420659 0.975973
vt 0.373604 0.976126
vt 0.332359 0.976263
vt 0.298510 0.976379
vt 0.273359 0.976469
vt 0.257870 0.976531
vt 0.252641 0.976562
vt 0.257871 0.976560
vt 0.273359 0.976527
vt 0.298511 0.976462
vt 0.332359 0.976369
vt 0.373604 0.976250
vt 0.420660 0.976112
vt 0.471718 0.975959
vt 0.524817 0.975796
vt 0.577916 0.975630
vt 0.628974 0.975468
vt 0.676030 0.975316
vt 0.717275 0.975179
vt 0.751123 0.975063
vt 0.776275 0.974972
vt 0.791763 0.974910
vt 0.249294 0.991202
vt 0.515991 0.021441
vt 0.254541 0.990231
vt 0.270095 0.989225
vt 0.295356 0.988221
vt 0.329355 0.987259
vt 0.370784 0.986376
vt 0.418053 0.985605
vt 0.469343 0.984976
vt 0.522685 0.984513
vt 0.576028 0.984234
vt 0.627323 0.984150
vt 0.674597 0.984264
vt 0.716035 0.984572
vt 0.750044 0.985061
vt 0.775317 0.985713
vt 0.790883 0.986503
vt 0.796143 0.987401
vt 0.790895 0.988371
vt 0.775342 0.989378
vt 0.750081 0.990381
vt 0.716082 0.991343
vt 0.674652 0.992227
vt 0.627384 0.992998
vt 0.576093 0.993627
vt 0.522752 0.994090
vt 0.469409 0.994368
vt 0.418114 0.994452
vt 0.370840 0.994339
vt 0.329402 0.994031
vt 0.295393 0.993542
vt 0.270120 0.992889
vt 0.254554 0.992099
s 1
f 1/1/1 33/2/1 2/3/1
f 2/3/2 33/2/2 3/4/2
f 3/4/3 33/2/3 4/5/3
f 4/5/4 33/2/4 5/6/4
f 5/6/5 33/2/5 6/7/5
f 6/7/6 33/2/6 7/8/6
f 7/8/7 33/2/7 8/9/7
f 8/9/8 33/2/8 9/10/8
f 9/10/9 33/2/9 10/11/9
f 10/11/10 33/2/10 11/12/10
f 11/12/11 33/2/11 12/13/11
f 12/13/12 33/2/12 13/14/12
f 13/14/13 33/2/13 14/15/13
f 14/15/14 33/2/14 15/16/14
f 15/16/15 33/2/15 16/17/15
f 16/17/16 33/2/16 17/18/16
f 17/18/17 33/2/17 18/19/17
f 18/19/18 33/2/18 19/20/18
f 19/20/19 33/2/19 20/21/19
f 20/21/20 33/2/20 21/22/20
f 21/22/21 33/2/21 22/23/21
f 22/23/22 33/2/22 23/24/22
f 23/24/23 33/2/23 24/25/23
f 24/25/24 33/2/24 25/26/24
f 25/26/25 33/2/25 26/27/25
f 26/27/26 33/2/26 27/28/26
f 27/28/27 33/2/27 28/29/27
f 28/29/28 33/2/28 29/30/28
f 29/30/29 33/2/29 30/31/29
f 30/31/30 33/2/30 31/32/30
f 1/1/31 2/3/31 3/4/31 4/5/31 5/6/31 6/7/31 7/8/31 8/9/31 9/10/31 10/11/31 11/12/31 12/13/31 13/14/31 14/15/31 15/16/31 16/17/31 17/18/31 18/19/31 19/20/31 20/21/31 21/22/31 22/23/31 23/24/31 24/25/31 25/26/31 26/27/31 27/28/31 28/29/31 29/30/31 30/31/31 31/32/31 32/33/31
f 31/32/32 33/2/32 32/33/32
f 32/33/33 33/2/33 1/1/33
f 34/34/34 66/35/34 35/36/34
f 35/36/35 66/35/35 36/37/35
f 36/37/36 66/35/36 37/38/36
f 37/38/37 66/35/37 38/39/37
f 38/39/38 66/35/38 39/40/38
f 39/40/39 66/35/39 40/41/39
f 40/41/40 66/35/40 41/42/40
f 41/42/41 66/35/41 42/43/41
f 42/43/42 66/35/42 43/44/42
f 43/44/43 66/35/43 44/45/43
f 44/45/44 66/35/44 45/46/44
f 45/46/45 66/35/45 46/47/45
f 46/47/46 66/35/46 47/48/46
f 47/48/47 66/35/47 48/49/47
f 48/49/48 66/35/48 49/50/48
f 49/50/49 66/35/49 50/51/49
f 50/51/50 66/35/50 51/52/50
f 51/52/51 66/35/51 52/53/51
f 52/53/52 66/35/52 53/54/52
f 53/54/53 66/35/53 54/55/53
f 54/55/54 66/35/54 55/56/54
f 55/56/55 66/35/55 56/57/55
f 56/57/56 66/35/56 57/58/56
f 57/58/57 66/35/57 58/59/57
f 58/59/58 66/35/58 59/60/58
f 59/60/59 66/35/59 60/61/59
f 60/61/60 66/35/60 61/62/60
f 61/62/61 66/35/61 62/63/61
f 62/63/62 66/35/62 63/64/62
f 63/64/63 66/35/63 64/65/63
f 34/34/64 35/36/64 36/37/64 37/38/64 38/39/64 39/40/64 40/41/64 41/42/64 42/43/64 43/44/64 44/45/64 45/46/64 46/47/64 47/48/64 48/49/64 49/50/64 50/51/64 51/52/64 52/53/64 53/54/64 54/55/64 55/56/64 56/57/64 57/58/64 58/59/64 59/60/64 60/61/64 61/62/64 62/63/64 63/64/64 64/65/64 65/66/64
f 64/65/65 66/35/65 65/66/65
f 65/66/66 66/35/66 34/34/66
